<svg xmlns="http://www.w3.org/2000/svg" viewBox="0 0 709.25 259.25"><path d="M0,248.23a10.83,10.83,0,0,1,1.08-4.88L83.29,51.85q2.88-6.68,10.29-6.68a10.29,10.29,0,0,1,8,3.34,11,11,0,0,1,3.07,7.68,10.76,10.76,0,0,1-1.08,4.87l-82,191.69q-2.89,6.5-10.48,6.5a10.3,10.3,0,0,1-7.95-3.34A11,11,0,0,1,0,248.23Z" style="fill:#fff"/><path d="M75,172.17a10.8,10.8,0,0,1-3.26-7.95A10.52,10.52,0,0,1,75,156.36a11,11,0,0,1,7.94-3.16H142a11,11,0,0,1,7.95,3.16,10.52,10.52,0,0,1,3.25,7.86,11.1,11.1,0,0,1-11.2,11.2H82.92A10.77,10.77,0,0,1,75,172.17Z" style="fill:#fff"/><path d="M101.71,11.38q0-7.41,6.69-10.3A9.63,9.63,0,0,1,112.73,0q7.59,0,10.48,6.68L224.57,243.35a10.05,10.05,0,0,1,1.08,4.52q0,7.41-6.69,10.3a9.63,9.63,0,0,1-4.33,1.08q-7.59,0-10.48-6.5L102.8,15.9A10,10,0,0,1,101.71,11.38Z" style="fill:#fff"/><path d="M188.68,11a10.7,10.7,0,0,1,3.25-7.68A11.33,11.33,0,0,1,206.38,2a11,11,0,0,1,4.16,5.42l87.62,236.85a20,20,0,0,1,.72,4,10.7,10.7,0,0,1-3.25,7.68,10.87,10.87,0,0,1-8.13,3.34q-7.59,0-10.48-7.22L189.4,15.18A19.88,19.88,0,0,1,188.68,11Z" style="fill:#fff"/><path d="M302.68,178a13.14,13.14,0,0,1,.72-4.15L365.55,7.41Q368.43,0,375.85,0a11.13,11.13,0,0,1,8.31,3.34A10.74,10.74,0,0,1,387.41,11a13.2,13.2,0,0,1-.72,4.16L324.36,181.57q-2.89,7.41-10.3,7.4a11.1,11.1,0,0,1-11.38-11Z" style="fill:#fff"/><path d="M399.91,246.91v-85.2a3.79,3.79,0,0,1,1.17-2.83,3.94,3.94,0,0,1,2.86-1.14,3.88,3.88,0,0,1,4,4v85.2a3.88,3.88,0,0,1-4,4,3.94,3.94,0,0,1-2.86-1.14A3.78,3.78,0,0,1,399.91,246.91Z" style="fill:#fff"/><path d="M414.37,249.73a4,4,0,0,1,2.83-6.79h40.09a4,4,0,1,1,0,7.93H417.2A3.84,3.84,0,0,1,414.37,249.73Z" style="fill:#fff"/><path d="M465.09,247a3.89,3.89,0,0,1,.39-1.76l29.57-68.89a3.73,3.73,0,0,1,3.71-2.4,3.68,3.68,0,0,1,2.85,1.2,4,4,0,0,1,1.11,2.76,3.89,3.89,0,0,1-.39,1.76l-29.51,68.95a3.76,3.76,0,0,1-3.76,2.34,3.7,3.7,0,0,1-2.86-1.2A4,4,0,0,1,465.09,247Z" style="fill:#fff"/><path d="M492.06,219.68a3.9,3.9,0,0,1-1.17-2.86,3.79,3.79,0,0,1,1.17-2.83,3.94,3.94,0,0,1,2.86-1.14h21.25A3.94,3.94,0,0,1,519,214a3.79,3.79,0,0,1,1.17,2.83,4,4,0,0,1-4,4H494.92A3.89,3.89,0,0,1,492.06,219.68Z" style="fill:#fff"/><path d="M501.68,161.84a3.73,3.73,0,0,1,2.4-3.71,3.46,3.46,0,0,1,1.56-.39,3.76,3.76,0,0,1,3.77,2.41l36.46,85.13a3.59,3.59,0,0,1,.39,1.63,3.72,3.72,0,0,1-2.4,3.7,3.46,3.46,0,0,1-1.56.39,3.77,3.77,0,0,1-3.77-2.34l-36.46-85.2A3.58,3.58,0,0,1,501.68,161.84Z" style="fill:#fff"/><path d="M561.14,247v-85.2a3.79,3.79,0,0,1,1.17-2.83,4,4,0,0,1,2.86-1.14,3.89,3.89,0,0,1,4,4V247a3.89,3.89,0,0,1-4,4,4,4,0,0,1-2.86-1.14A3.78,3.78,0,0,1,561.14,247Z" style="fill:#fff"/><path d="M574.69,164.7a4,4,0,0,1-1.13-2.86,3.88,3.88,0,0,1,4-4h20.34a34.71,34.71,0,0,1,12.38,2,18.86,18.86,0,0,1,8.09,5.42,23.11,23.11,0,0,1,4.2,7.41,27,27,0,0,1,1.33,8.58A19.87,19.87,0,0,1,617,197q-6.86,6-19.14,6H578.69a3.83,3.83,0,0,1-2.83-1.13,3.87,3.87,0,0,1-1.13-2.83,4,4,0,0,1,1.13-2.86,3.79,3.79,0,0,1,2.83-1.17h19.17q8.77,0,13.39-3.74a12.16,12.16,0,0,0,4.61-10q0-15.4-18-15.4H577.52A3.79,3.79,0,0,1,574.69,164.7Z" style="fill:#fff"/><path d="M575.6,249.73a4,4,0,0,1,2.83-6.79h21.45a39.75,39.75,0,0,0,6.82-.55,26.87,26.87,0,0,0,6.37-2,18.29,18.29,0,0,0,5.46-3.71,16.61,16.61,0,0,0,3.67-6,23.82,23.82,0,0,0,1.4-8.44v-.13q0-10-5.59-14.89a3.91,3.91,0,0,1-1.5-3,4.11,4.11,0,0,1,1-2.67,3.9,3.9,0,0,1,5.72-.45,23.13,23.13,0,0,1,6.24,9,32,32,0,0,1,2.21,12.09l-.19.13q0,13.51-8.48,21.05t-23.17,7.54H578.43A3.84,3.84,0,0,1,575.6,249.73Z" style="fill:#fff"/><path d="M646.41,223.64v-.84a4.08,4.08,0,0,1,1.27-2.73,3.78,3.78,0,0,1,2.76-1.11,4.1,4.1,0,0,1,4.22,4.23v.58a16.51,16.51,0,0,0,5.07,12.09,23.23,23.23,0,0,0,8.77,5.46,31.66,31.66,0,0,0,10.66,1.75h.13a31.1,31.1,0,0,0,9.23-1.36,19.74,19.74,0,0,0,7.67-4.36,16.27,16.27,0,0,0,3.61-5.26,15.31,15.31,0,0,0,1.33-6.11v-.26a4,4,0,0,1,1.17-2.89,3.84,3.84,0,0,1,2.86-1.2,4.09,4.09,0,0,1,2.89,1.13,3.74,3.74,0,0,1,1.2,2.83V226a25.82,25.82,0,0,1-7.86,17,25.59,25.59,0,0,1-10.66,6.11,39.64,39.64,0,0,1-11.7,1.69h-.13a40.29,40.29,0,0,1-13.32-2.08,29,29,0,0,1-11.83-7.34A24.13,24.13,0,0,1,646.41,223.64Z" style="fill:#fff"/><path d="M654,178.47a20.45,20.45,0,0,1,1.27-6.46,18.5,18.5,0,0,1,4.45-7,22.58,22.58,0,0,1,9-5.72,31.31,31.31,0,0,1,9.75-1.43h.26a29.31,29.31,0,0,1,17.81,5.59,24.39,24.39,0,0,1,6.82,7.77,22.4,22.4,0,0,1,2.93,10,4.07,4.07,0,0,1-4.16,4.29,3.69,3.69,0,0,1-2.7-1.14,4.28,4.28,0,0,1-1.27-2.76,14.9,14.9,0,0,0-6-11.41,20.64,20.64,0,0,0-13-4.38h-.26a22.24,22.24,0,0,0-7.21,1.17,15.13,15.13,0,0,0-6,3.57,12.28,12.28,0,0,0-3.57,8,4.35,4.35,0,0,1-1.24,2.77,3.69,3.69,0,0,1-2.73,1.13,4.09,4.09,0,0,1-2.92-1.17A3.76,3.76,0,0,1,654,178.47Z" style="fill:#fff"/><path d="M657.2,189.52a3.78,3.78,0,0,1,1.88-3.31,4.27,4.27,0,0,1,2.15-.65,3.8,3.8,0,0,1,3.31,1.88,29.06,29.06,0,0,0,6.56,6.73,36.73,36.73,0,0,0,9,4.45c.61.22,2.47.84,5.59,1.88s5.7,2,7.73,2.93a30.88,30.88,0,0,1,5.72,3.31,28.84,28.84,0,0,1,3.9,3.19,3.94,3.94,0,0,1-.26,5.59,3.94,3.94,0,0,1-5.59-.26A20.53,20.53,0,0,0,694.5,213a25,25,0,0,0-4.68-2.6c-1.73-.73-4-1.56-6.82-2.47s-4.73-1.53-5.72-1.88q-10-3.65-15.79-9.55a36.72,36.72,0,0,1-3.64-4.81A4.17,4.17,0,0,1,657.2,189.52Z" style="fill:#fff"/></svg>